<svg width="66" height="21" viewBox="0 0 66 21" fill="none" xmlns="http://www.w3.org/2000/svg">
<path d="M0.572 10.192H4.62V10.654C4.62 11.666 4.80333 12.37 5.17 12.766C5.522 13.162 6.094 13.36 6.886 13.36C7.64867 13.36 8.228 13.1473 8.624 12.722C9.02 12.238 9.218 11.4827 9.218 10.456V0.599999H13.266V10.434C13.266 12.5167 12.782 14.042 11.814 15.01C11.3593 15.4647 10.7947 15.802 10.12 16.022C9.46 16.2567 8.93933 16.3813 8.558 16.396C8.19133 16.4253 7.67067 16.44 6.996 16.44C6.292 16.44 5.72733 16.4253 5.302 16.396C4.87667 16.3667 4.312 16.2347 3.608 16C2.904 15.78 2.33933 15.4427 1.914 14.988C1.01933 14.0933 0.572 12.6707 0.572 10.72V10.192ZM23.9767 7.75C23.4194 7.19267 22.6274 6.914 21.6007 6.914C20.5741 6.914 19.7821 7.19267 19.2247 7.75C18.6087 8.366 18.3007 9.25333 18.3007 10.412C18.3007 11.5707 18.6087 12.458 19.2247 13.074C19.7821 13.6313 20.5741 13.91 21.6007 13.91C22.6274 13.91 23.4194 13.6313 23.9767 13.074C24.5927 12.458 24.9007 11.5707 24.9007 10.412C24.9007 9.25333 24.5927 8.366 23.9767 7.75ZM26.9687 5.88C28.2594 6.92133 28.9047 8.432 28.9047 10.412C28.9047 12.392 28.2594 13.9027 26.9687 14.944C25.7514 15.9267 23.9621 16.418 21.6007 16.418C19.2394 16.418 17.4501 15.9267 16.2327 14.944C14.9421 13.9027 14.2967 12.392 14.2967 10.412C14.2967 8.432 14.9421 6.92133 16.2327 5.88C17.4794 4.89733 19.2687 4.406 21.6007 4.406C23.9327 4.406 25.7221 4.89733 26.9687 5.88ZM36.6759 6.936C35.8252 6.936 35.1286 7.19267 34.5859 7.706C33.8966 8.322 33.5519 9.23867 33.5519 10.456C33.5519 11.6 33.8819 12.48 34.5419 13.096C35.1139 13.624 35.8179 13.888 36.6539 13.888C37.5632 13.888 38.2966 13.6093 38.8539 13.052C39.4552 12.436 39.7559 11.556 39.7559 10.412C39.7559 9.32667 39.4992 8.48333 38.9859 7.882C38.4579 7.25133 37.6879 6.936 36.6759 6.936ZM33.4859 14.68V16H29.7899V0.599999H33.6619V6.1C34.0432 5.572 34.5639 5.176 35.2239 4.912C35.8986 4.61867 36.7346 4.472 37.7319 4.472C39.6386 4.472 41.1199 4.956 42.1759 5.924C43.2612 6.92133 43.8039 8.35867 43.8039 10.236C43.8039 12.26 43.2979 13.8 42.2859 14.856C41.6846 15.4867 41.0172 15.89 40.2839 16.066C39.5506 16.2567 38.6926 16.352 37.7099 16.352C36.4046 16.352 35.4219 16.176 34.7619 15.824C34.3072 15.5893 33.9112 15.208 33.5739 14.68H33.4859ZM62.134 3.042V0.446H66.006V3.042H62.134ZM62.134 4.824H66.006V16.044C66.006 17.496 65.6687 18.5593 64.994 19.234C64.3927 19.8353 63.4027 20.136 62.024 20.136C61.2467 20.136 60.5647 20.07 59.978 19.938V17.518C60.198 17.562 60.418 17.584 60.638 17.584C61.1367 17.584 61.5033 17.4593 61.738 17.21C62.002 16.9313 62.134 16.242 62.134 15.142V4.824Z" fill="#333333"/>
<path d="M48.8266 9.818H53.9526V4.23L48.8266 9.818ZM53.9526 12.678H45.3286V9.862L54.0846 0.599999H57.9566V9.818H60.5526V12.678H57.9566V16H53.9526V12.678Z" fill="#395CDF"/>
</svg>
